<mxfile host="app.diagrams.net" agent="Mozilla/5.0 (X11; Ubuntu; Linux x86_64; rv:137.0) Gecko/20100101 Firefox/137.0" version="26.2.14" pages="6">
  <diagram name="eje1" id="oDDvwjun0JXODCpOd9bP">
    <mxGraphModel dx="1360" dy="795" grid="1" gridSize="10" guides="1" tooltips="1" connect="1" arrows="1" fold="1" page="1" pageScale="1" pageWidth="827" pageHeight="1169" math="0" shadow="0">
      <root>
        <mxCell id="0" />
        <mxCell id="1" parent="0" />
        <mxCell id="VXG6pb-14vEJfliPke1N-5" value="" style="edgeStyle=orthogonalEdgeStyle;rounded=0;orthogonalLoop=1;jettySize=auto;html=1;" edge="1" parent="1" source="VXG6pb-14vEJfliPke1N-1" target="VXG6pb-14vEJfliPke1N-2">
          <mxGeometry relative="1" as="geometry" />
        </mxCell>
        <mxCell id="VXG6pb-14vEJfliPke1N-1" value="Inicio" style="ellipse;whiteSpace=wrap;html=1;" vertex="1" parent="1">
          <mxGeometry x="340" y="30" width="120" height="80" as="geometry" />
        </mxCell>
        <mxCell id="VXG6pb-14vEJfliPke1N-4" value="" style="edgeStyle=orthogonalEdgeStyle;rounded=0;orthogonalLoop=1;jettySize=auto;html=1;" edge="1" parent="1" source="VXG6pb-14vEJfliPke1N-2" target="VXG6pb-14vEJfliPke1N-3">
          <mxGeometry relative="1" as="geometry" />
        </mxCell>
        <mxCell id="VXG6pb-14vEJfliPke1N-2" value="Edad" style="shape=parallelogram;perimeter=parallelogramPerimeter;whiteSpace=wrap;html=1;fixedSize=1;" vertex="1" parent="1">
          <mxGeometry x="340" y="150" width="120" height="60" as="geometry" />
        </mxCell>
        <mxCell id="VXG6pb-14vEJfliPke1N-6" style="edgeStyle=orthogonalEdgeStyle;rounded=0;orthogonalLoop=1;jettySize=auto;html=1;exitX=0.07;exitY=0.53;exitDx=0;exitDy=0;exitPerimeter=0;" edge="1" parent="1">
          <mxGeometry relative="1" as="geometry">
            <mxPoint x="343" y="180" as="targetPoint" />
            <mxPoint x="350" y="303" as="sourcePoint" />
            <Array as="points">
              <mxPoint x="264" y="303" />
              <mxPoint x="264" y="180" />
            </Array>
          </mxGeometry>
        </mxCell>
        <mxCell id="VXG6pb-14vEJfliPke1N-10" value="" style="edgeStyle=orthogonalEdgeStyle;rounded=0;orthogonalLoop=1;jettySize=auto;html=1;" edge="1" parent="1" source="VXG6pb-14vEJfliPke1N-3" target="VXG6pb-14vEJfliPke1N-9">
          <mxGeometry relative="1" as="geometry" />
        </mxCell>
        <mxCell id="VXG6pb-14vEJfliPke1N-3" value="¿El dato es correcto?" style="rhombus;whiteSpace=wrap;html=1;" vertex="1" parent="1">
          <mxGeometry x="350" y="250" width="100" height="100" as="geometry" />
        </mxCell>
        <mxCell id="VXG6pb-14vEJfliPke1N-12" value="" style="edgeStyle=orthogonalEdgeStyle;rounded=0;orthogonalLoop=1;jettySize=auto;html=1;" edge="1" parent="1" source="VXG6pb-14vEJfliPke1N-9">
          <mxGeometry relative="1" as="geometry">
            <mxPoint x="520" y="430" as="targetPoint" />
          </mxGeometry>
        </mxCell>
        <mxCell id="VXG6pb-14vEJfliPke1N-14" value="" style="edgeStyle=orthogonalEdgeStyle;rounded=0;orthogonalLoop=1;jettySize=auto;html=1;" edge="1" parent="1" source="VXG6pb-14vEJfliPke1N-9">
          <mxGeometry relative="1" as="geometry">
            <mxPoint x="280" y="430" as="targetPoint" />
          </mxGeometry>
        </mxCell>
        <mxCell id="VXG6pb-14vEJfliPke1N-9" value="¿Es mayor de edad?" style="rhombus;whiteSpace=wrap;html=1;" vertex="1" parent="1">
          <mxGeometry x="350" y="380" width="100" height="100" as="geometry" />
        </mxCell>
        <mxCell id="VXG6pb-14vEJfliPke1N-16" value="" style="edgeStyle=orthogonalEdgeStyle;rounded=0;orthogonalLoop=1;jettySize=auto;html=1;" edge="1" parent="1" target="VXG6pb-14vEJfliPke1N-15">
          <mxGeometry relative="1" as="geometry">
            <mxPoint x="580" y="460" as="sourcePoint" />
            <Array as="points">
              <mxPoint x="580" y="590" />
            </Array>
          </mxGeometry>
        </mxCell>
        <mxCell id="VXG6pb-14vEJfliPke1N-15" value="fin" style="ellipse;whiteSpace=wrap;html=1;" vertex="1" parent="1">
          <mxGeometry x="359" y="550" width="110" height="80" as="geometry" />
        </mxCell>
        <mxCell id="VXG6pb-14vEJfliPke1N-17" value="" style="endArrow=classic;html=1;rounded=0;exitX=0.5;exitY=1;exitDx=0;exitDy=0;entryX=0;entryY=0.5;entryDx=0;entryDy=0;" edge="1" parent="1" target="VXG6pb-14vEJfliPke1N-15">
          <mxGeometry width="50" height="50" relative="1" as="geometry">
            <mxPoint x="220" y="460" as="sourcePoint" />
            <mxPoint x="440" y="330" as="targetPoint" />
            <Array as="points">
              <mxPoint x="220" y="590" />
            </Array>
          </mxGeometry>
        </mxCell>
        <mxCell id="VXG6pb-14vEJfliPke1N-18" value="si" style="text;html=1;align=center;verticalAlign=middle;whiteSpace=wrap;rounded=0;" vertex="1" parent="1">
          <mxGeometry x="450" y="400" width="60" height="30" as="geometry" />
        </mxCell>
        <mxCell id="VXG6pb-14vEJfliPke1N-20" value="si" style="text;html=1;align=center;verticalAlign=middle;whiteSpace=wrap;rounded=0;" vertex="1" parent="1">
          <mxGeometry x="380" y="350" width="60" height="30" as="geometry" />
        </mxCell>
        <mxCell id="VXG6pb-14vEJfliPke1N-21" value="No" style="text;html=1;align=center;verticalAlign=middle;whiteSpace=wrap;rounded=0;" vertex="1" parent="1">
          <mxGeometry x="290" y="430" width="60" height="30" as="geometry" />
        </mxCell>
        <mxCell id="VXG6pb-14vEJfliPke1N-24" value="No" style="text;html=1;align=center;verticalAlign=middle;whiteSpace=wrap;rounded=0;" vertex="1" parent="1">
          <mxGeometry x="280" y="280" width="60" height="30" as="geometry" />
        </mxCell>
        <mxCell id="MTknD-DyXYkmHVOyinlT-1" value="imprimir por pantalla &quot;es mayor de edad&quot;" style="shape=parallelogram;perimeter=parallelogramPerimeter;whiteSpace=wrap;html=1;fixedSize=1;" vertex="1" parent="1">
          <mxGeometry x="510" y="400" width="120" height="60" as="geometry" />
        </mxCell>
        <mxCell id="MTknD-DyXYkmHVOyinlT-2" value="Imprimir por pantalla &quot;es menor de edad&quot;" style="shape=parallelogram;perimeter=parallelogramPerimeter;whiteSpace=wrap;html=1;fixedSize=1;" vertex="1" parent="1">
          <mxGeometry x="170" y="400" width="120" height="60" as="geometry" />
        </mxCell>
      </root>
    </mxGraphModel>
  </diagram>
  <diagram id="dOMMeRFJFiCX06vIgT3p" name="eje2">
    <mxGraphModel dx="1360" dy="795" grid="1" gridSize="10" guides="1" tooltips="1" connect="1" arrows="1" fold="1" page="1" pageScale="1" pageWidth="827" pageHeight="1169" math="0" shadow="0">
      <root>
        <mxCell id="0" />
        <mxCell id="1" parent="0" />
        <mxCell id="EIq44x1WnnHlxAcT-Dhh-3" value="" style="edgeStyle=orthogonalEdgeStyle;rounded=0;orthogonalLoop=1;jettySize=auto;html=1;" edge="1" parent="1" source="EIq44x1WnnHlxAcT-Dhh-1" target="EIq44x1WnnHlxAcT-Dhh-2">
          <mxGeometry relative="1" as="geometry" />
        </mxCell>
        <mxCell id="EIq44x1WnnHlxAcT-Dhh-1" value="Inicio" style="ellipse;whiteSpace=wrap;html=1;" vertex="1" parent="1">
          <mxGeometry x="340" y="50" width="120" height="80" as="geometry" />
        </mxCell>
        <mxCell id="EIq44x1WnnHlxAcT-Dhh-5" value="" style="edgeStyle=orthogonalEdgeStyle;rounded=0;orthogonalLoop=1;jettySize=auto;html=1;" edge="1" parent="1" source="EIq44x1WnnHlxAcT-Dhh-2" target="EIq44x1WnnHlxAcT-Dhh-4">
          <mxGeometry relative="1" as="geometry" />
        </mxCell>
        <mxCell id="EIq44x1WnnHlxAcT-Dhh-2" value="Num" style="shape=parallelogram;perimeter=parallelogramPerimeter;whiteSpace=wrap;html=1;fixedSize=1;" vertex="1" parent="1">
          <mxGeometry x="340" y="190" width="120" height="60" as="geometry" />
        </mxCell>
        <mxCell id="t5OvW-n2_LcItjBUVCVS-2" value="" style="edgeStyle=orthogonalEdgeStyle;rounded=0;orthogonalLoop=1;jettySize=auto;html=1;" edge="1" parent="1" source="EIq44x1WnnHlxAcT-Dhh-4">
          <mxGeometry relative="1" as="geometry">
            <mxPoint x="490" y="330" as="targetPoint" />
          </mxGeometry>
        </mxCell>
        <mxCell id="t5OvW-n2_LcItjBUVCVS-6" value="" style="edgeStyle=orthogonalEdgeStyle;rounded=0;orthogonalLoop=1;jettySize=auto;html=1;" edge="1" parent="1" source="EIq44x1WnnHlxAcT-Dhh-4" target="t5OvW-n2_LcItjBUVCVS-5">
          <mxGeometry relative="1" as="geometry">
            <Array as="points">
              <mxPoint x="300" y="330" />
            </Array>
          </mxGeometry>
        </mxCell>
        <mxCell id="EIq44x1WnnHlxAcT-Dhh-4" value="¿El Numero es Positivo?" style="rhombus;whiteSpace=wrap;html=1;" vertex="1" parent="1">
          <mxGeometry x="350" y="280" width="100" height="100" as="geometry" />
        </mxCell>
        <mxCell id="Vti80qIH1Ct6m49zxeZ5-9" style="edgeStyle=orthogonalEdgeStyle;rounded=0;orthogonalLoop=1;jettySize=auto;html=1;exitX=0.5;exitY=1;exitDx=0;exitDy=0;entryX=1;entryY=0.5;entryDx=0;entryDy=0;" edge="1" parent="1" target="Vti80qIH1Ct6m49zxeZ5-8">
          <mxGeometry relative="1" as="geometry">
            <mxPoint x="550" y="360" as="sourcePoint" />
            <Array as="points">
              <mxPoint x="550" y="700" />
            </Array>
          </mxGeometry>
        </mxCell>
        <mxCell id="t5OvW-n2_LcItjBUVCVS-8" value="" style="edgeStyle=orthogonalEdgeStyle;rounded=0;orthogonalLoop=1;jettySize=auto;html=1;" edge="1" parent="1" source="t5OvW-n2_LcItjBUVCVS-5" target="t5OvW-n2_LcItjBUVCVS-7">
          <mxGeometry relative="1" as="geometry">
            <Array as="points">
              <mxPoint x="180" y="400" />
            </Array>
          </mxGeometry>
        </mxCell>
        <mxCell id="Vti80qIH1Ct6m49zxeZ5-2" value="" style="edgeStyle=orthogonalEdgeStyle;rounded=0;orthogonalLoop=1;jettySize=auto;html=1;" edge="1" parent="1" source="t5OvW-n2_LcItjBUVCVS-5">
          <mxGeometry relative="1" as="geometry">
            <mxPoint x="400" y="500" as="targetPoint" />
          </mxGeometry>
        </mxCell>
        <mxCell id="t5OvW-n2_LcItjBUVCVS-5" value="¿El numero es negativo? " style="rhombus;whiteSpace=wrap;html=1;" vertex="1" parent="1">
          <mxGeometry x="250" y="350" width="100" height="100" as="geometry" />
        </mxCell>
        <mxCell id="Vti80qIH1Ct6m49zxeZ5-4" value="" style="edgeStyle=orthogonalEdgeStyle;rounded=0;orthogonalLoop=1;jettySize=auto;html=1;" edge="1" parent="1" source="t5OvW-n2_LcItjBUVCVS-7">
          <mxGeometry relative="1" as="geometry">
            <mxPoint x="250" y="560" as="targetPoint" />
          </mxGeometry>
        </mxCell>
        <mxCell id="Vti80qIH1Ct6m49zxeZ5-6" value="" style="edgeStyle=orthogonalEdgeStyle;rounded=0;orthogonalLoop=1;jettySize=auto;html=1;" edge="1" parent="1" source="t5OvW-n2_LcItjBUVCVS-7" target="Vti80qIH1Ct6m49zxeZ5-5">
          <mxGeometry relative="1" as="geometry">
            <Array as="points">
              <mxPoint x="60" y="460" />
            </Array>
          </mxGeometry>
        </mxCell>
        <mxCell id="t5OvW-n2_LcItjBUVCVS-7" value="¿El numero es cero?" style="rhombus;whiteSpace=wrap;html=1;" vertex="1" parent="1">
          <mxGeometry x="130" y="410" width="100" height="100" as="geometry" />
        </mxCell>
        <mxCell id="Vti80qIH1Ct6m49zxeZ5-10" style="edgeStyle=orthogonalEdgeStyle;rounded=0;orthogonalLoop=1;jettySize=auto;html=1;exitX=0.5;exitY=1;exitDx=0;exitDy=0;" edge="1" parent="1" target="Vti80qIH1Ct6m49zxeZ5-8">
          <mxGeometry relative="1" as="geometry">
            <mxPoint x="400" y="560" as="sourcePoint" />
          </mxGeometry>
        </mxCell>
        <mxCell id="Vti80qIH1Ct6m49zxeZ5-11" style="edgeStyle=orthogonalEdgeStyle;rounded=0;orthogonalLoop=1;jettySize=auto;html=1;exitX=0.5;exitY=1;exitDx=0;exitDy=0;entryX=0;entryY=0.5;entryDx=0;entryDy=0;" edge="1" parent="1" target="Vti80qIH1Ct6m49zxeZ5-8">
          <mxGeometry relative="1" as="geometry">
            <mxPoint x="320" y="710" as="targetPoint" />
            <mxPoint x="250" y="620" as="sourcePoint" />
            <Array as="points">
              <mxPoint x="250" y="700" />
            </Array>
          </mxGeometry>
        </mxCell>
        <mxCell id="Vti80qIH1Ct6m49zxeZ5-7" style="edgeStyle=orthogonalEdgeStyle;rounded=0;orthogonalLoop=1;jettySize=auto;html=1;exitX=0.5;exitY=0;exitDx=0;exitDy=0;entryX=0;entryY=0.25;entryDx=0;entryDy=0;" edge="1" parent="1" source="Vti80qIH1Ct6m49zxeZ5-5" target="EIq44x1WnnHlxAcT-Dhh-2">
          <mxGeometry relative="1" as="geometry">
            <mxPoint x="170" y="170" as="targetPoint" />
            <Array as="points">
              <mxPoint x="60" y="208" />
            </Array>
          </mxGeometry>
        </mxCell>
        <mxCell id="Vti80qIH1Ct6m49zxeZ5-5" value="CARACTER INVALIDO" style="whiteSpace=wrap;html=1;" vertex="1" parent="1">
          <mxGeometry y="360" width="120" height="60" as="geometry" />
        </mxCell>
        <mxCell id="Vti80qIH1Ct6m49zxeZ5-8" value="Fin" style="ellipse;whiteSpace=wrap;html=1;" vertex="1" parent="1">
          <mxGeometry x="354" y="660" width="120" height="80" as="geometry" />
        </mxCell>
        <mxCell id="Vti80qIH1Ct6m49zxeZ5-12" value="SI" style="text;html=1;align=center;verticalAlign=middle;whiteSpace=wrap;rounded=0;" vertex="1" parent="1">
          <mxGeometry x="200" y="510" width="60" height="30" as="geometry" />
        </mxCell>
        <mxCell id="Vti80qIH1Ct6m49zxeZ5-15" value="SI" style="text;html=1;align=center;verticalAlign=middle;whiteSpace=wrap;rounded=0;" vertex="1" parent="1">
          <mxGeometry x="320" y="450" width="60" height="30" as="geometry" />
        </mxCell>
        <mxCell id="Vti80qIH1Ct6m49zxeZ5-16" value="SI" style="text;html=1;align=center;verticalAlign=middle;whiteSpace=wrap;rounded=0;" vertex="1" parent="1">
          <mxGeometry x="430" y="300" width="60" height="30" as="geometry" />
        </mxCell>
        <mxCell id="Vti80qIH1Ct6m49zxeZ5-18" value="No" style="text;html=1;align=center;verticalAlign=middle;whiteSpace=wrap;rounded=0;" vertex="1" parent="1">
          <mxGeometry x="60" y="440" width="60" height="30" as="geometry" />
        </mxCell>
        <mxCell id="Vti80qIH1Ct6m49zxeZ5-19" style="edgeStyle=orthogonalEdgeStyle;rounded=0;orthogonalLoop=1;jettySize=auto;html=1;exitX=0.5;exitY=1;exitDx=0;exitDy=0;" edge="1" parent="1" source="Vti80qIH1Ct6m49zxeZ5-18" target="Vti80qIH1Ct6m49zxeZ5-18">
          <mxGeometry relative="1" as="geometry" />
        </mxCell>
        <mxCell id="Vti80qIH1Ct6m49zxeZ5-20" value="No" style="text;html=1;align=center;verticalAlign=middle;whiteSpace=wrap;rounded=0;" vertex="1" parent="1">
          <mxGeometry x="190" y="375" width="60" height="30" as="geometry" />
        </mxCell>
        <mxCell id="Vti80qIH1Ct6m49zxeZ5-21" value="No" style="text;html=1;align=center;verticalAlign=middle;whiteSpace=wrap;rounded=0;" vertex="1" parent="1">
          <mxGeometry x="300" y="300" width="60" height="30" as="geometry" />
        </mxCell>
        <mxCell id="bxj10yTH87-amJd94JzE-1" value="Mostrar en pantalla &quot;es negativo&quot;" style="shape=parallelogram;perimeter=parallelogramPerimeter;whiteSpace=wrap;html=1;fixedSize=1;" vertex="1" parent="1">
          <mxGeometry x="340" y="500" width="120" height="60" as="geometry" />
        </mxCell>
        <mxCell id="bxj10yTH87-amJd94JzE-2" value="Mostrar en pantalla &quot;Es cero&quot;" style="shape=parallelogram;perimeter=parallelogramPerimeter;whiteSpace=wrap;html=1;fixedSize=1;" vertex="1" parent="1">
          <mxGeometry x="190" y="560" width="120" height="60" as="geometry" />
        </mxCell>
        <mxCell id="bxj10yTH87-amJd94JzE-3" value="Mostrar en pantalla &quot;es positivo&quot;" style="shape=parallelogram;perimeter=parallelogramPerimeter;whiteSpace=wrap;html=1;fixedSize=1;" vertex="1" parent="1">
          <mxGeometry x="480" y="300" width="120" height="60" as="geometry" />
        </mxCell>
      </root>
    </mxGraphModel>
  </diagram>
  <diagram id="v6NCmiCkm0-bQ4rvW43J" name="eje3">
    <mxGraphModel dx="1360" dy="795" grid="1" gridSize="10" guides="1" tooltips="1" connect="1" arrows="1" fold="1" page="1" pageScale="1" pageWidth="827" pageHeight="1169" math="0" shadow="0">
      <root>
        <mxCell id="0" />
        <mxCell id="1" parent="0" />
        <mxCell id="zuUH16iiflvhdRFyiJc--3" value="" style="edgeStyle=orthogonalEdgeStyle;rounded=0;orthogonalLoop=1;jettySize=auto;html=1;" edge="1" parent="1" source="zuUH16iiflvhdRFyiJc--1" target="zuUH16iiflvhdRFyiJc--2">
          <mxGeometry relative="1" as="geometry" />
        </mxCell>
        <mxCell id="zuUH16iiflvhdRFyiJc--1" value="Inicio" style="ellipse;whiteSpace=wrap;html=1;" vertex="1" parent="1">
          <mxGeometry x="340" y="50" width="120" height="80" as="geometry" />
        </mxCell>
        <mxCell id="zuUH16iiflvhdRFyiJc--5" value="" style="edgeStyle=orthogonalEdgeStyle;rounded=0;orthogonalLoop=1;jettySize=auto;html=1;" edge="1" parent="1" source="zuUH16iiflvhdRFyiJc--2">
          <mxGeometry relative="1" as="geometry">
            <mxPoint x="400" y="300" as="targetPoint" />
          </mxGeometry>
        </mxCell>
        <mxCell id="zuUH16iiflvhdRFyiJc--2" value="Num" style="shape=parallelogram;perimeter=parallelogramPerimeter;whiteSpace=wrap;html=1;fixedSize=1;" vertex="1" parent="1">
          <mxGeometry x="340" y="170" width="120" height="60" as="geometry" />
        </mxCell>
        <mxCell id="Dp0i-FNjKYX6aDLT8HzL-5" value="" style="edgeStyle=orthogonalEdgeStyle;rounded=0;orthogonalLoop=1;jettySize=auto;html=1;" edge="1" parent="1" source="Dp0i-FNjKYX6aDLT8HzL-3" target="Dp0i-FNjKYX6aDLT8HzL-4">
          <mxGeometry relative="1" as="geometry" />
        </mxCell>
        <mxCell id="Dp0i-FNjKYX6aDLT8HzL-3" value="¿Num % 2 == 0?" style="rounded=0;whiteSpace=wrap;html=1;" vertex="1" parent="1">
          <mxGeometry x="340" y="260" width="120" height="60" as="geometry" />
        </mxCell>
        <mxCell id="Dp0i-FNjKYX6aDLT8HzL-8" value="" style="edgeStyle=orthogonalEdgeStyle;rounded=0;orthogonalLoop=1;jettySize=auto;html=1;" edge="1" parent="1" source="Dp0i-FNjKYX6aDLT8HzL-4" target="Dp0i-FNjKYX6aDLT8HzL-7">
          <mxGeometry relative="1" as="geometry" />
        </mxCell>
        <mxCell id="Dp0i-FNjKYX6aDLT8HzL-10" value="" style="edgeStyle=orthogonalEdgeStyle;rounded=0;orthogonalLoop=1;jettySize=auto;html=1;" edge="1" parent="1" source="Dp0i-FNjKYX6aDLT8HzL-4" target="Dp0i-FNjKYX6aDLT8HzL-9">
          <mxGeometry relative="1" as="geometry" />
        </mxCell>
        <mxCell id="Dp0i-FNjKYX6aDLT8HzL-4" value="¿cumple la ecuación?" style="rhombus;whiteSpace=wrap;html=1;rounded=0;" vertex="1" parent="1">
          <mxGeometry x="360" y="360" width="80" height="80" as="geometry" />
        </mxCell>
        <mxCell id="Dp0i-FNjKYX6aDLT8HzL-12" value="" style="edgeStyle=orthogonalEdgeStyle;rounded=0;orthogonalLoop=1;jettySize=auto;html=1;" edge="1" parent="1" source="Dp0i-FNjKYX6aDLT8HzL-7" target="Dp0i-FNjKYX6aDLT8HzL-11">
          <mxGeometry relative="1" as="geometry">
            <Array as="points">
              <mxPoint x="590" y="540" />
            </Array>
          </mxGeometry>
        </mxCell>
        <mxCell id="Dp0i-FNjKYX6aDLT8HzL-7" value="El numero es par" style="shape=parallelogram;perimeter=parallelogramPerimeter;whiteSpace=wrap;html=1;fixedSize=1;rounded=0;" vertex="1" parent="1">
          <mxGeometry x="500" y="370" width="120" height="60" as="geometry" />
        </mxCell>
        <mxCell id="Dp0i-FNjKYX6aDLT8HzL-13" style="edgeStyle=orthogonalEdgeStyle;rounded=0;orthogonalLoop=1;jettySize=auto;html=1;exitX=0.5;exitY=1;exitDx=0;exitDy=0;entryX=0;entryY=0.5;entryDx=0;entryDy=0;" edge="1" parent="1" source="Dp0i-FNjKYX6aDLT8HzL-9" target="Dp0i-FNjKYX6aDLT8HzL-11">
          <mxGeometry relative="1" as="geometry" />
        </mxCell>
        <mxCell id="Dp0i-FNjKYX6aDLT8HzL-9" value="El numero es impar" style="shape=parallelogram;perimeter=parallelogramPerimeter;whiteSpace=wrap;html=1;fixedSize=1;rounded=0;" vertex="1" parent="1">
          <mxGeometry x="180" y="370" width="120" height="60" as="geometry" />
        </mxCell>
        <mxCell id="Dp0i-FNjKYX6aDLT8HzL-11" value="fin" style="ellipse;whiteSpace=wrap;html=1;rounded=0;" vertex="1" parent="1">
          <mxGeometry x="360" y="505" width="110" height="80" as="geometry" />
        </mxCell>
      </root>
    </mxGraphModel>
  </diagram>
  <diagram id="9LCQoCpT8iXQ_EW4Qale" name="Página-4">
    <mxGraphModel dx="1360" dy="795" grid="1" gridSize="10" guides="1" tooltips="1" connect="1" arrows="1" fold="1" page="1" pageScale="1" pageWidth="827" pageHeight="1169" math="0" shadow="0">
      <root>
        <mxCell id="0" />
        <mxCell id="1" parent="0" />
        <mxCell id="RavAk34t6wuNCGmMc1mm-3" value="" style="edgeStyle=orthogonalEdgeStyle;rounded=0;orthogonalLoop=1;jettySize=auto;html=1;entryX=0.5;entryY=0;entryDx=0;entryDy=0;" edge="1" parent="1" source="RavAk34t6wuNCGmMc1mm-1" target="RavAk34t6wuNCGmMc1mm-4">
          <mxGeometry relative="1" as="geometry">
            <mxPoint x="370" y="200" as="targetPoint" />
          </mxGeometry>
        </mxCell>
        <mxCell id="RavAk34t6wuNCGmMc1mm-1" value="Inicio" style="ellipse;whiteSpace=wrap;html=1;" vertex="1" parent="1">
          <mxGeometry x="310" y="30" width="120" height="80" as="geometry" />
        </mxCell>
        <mxCell id="RavAk34t6wuNCGmMc1mm-6" value="" style="edgeStyle=orthogonalEdgeStyle;rounded=0;orthogonalLoop=1;jettySize=auto;html=1;" edge="1" parent="1" source="RavAk34t6wuNCGmMc1mm-4" target="RavAk34t6wuNCGmMc1mm-5">
          <mxGeometry relative="1" as="geometry" />
        </mxCell>
        <mxCell id="RavAk34t6wuNCGmMc1mm-4" value="Ingrese la contraseña" style="shape=parallelogram;perimeter=parallelogramPerimeter;whiteSpace=wrap;html=1;fixedSize=1;" vertex="1" parent="1">
          <mxGeometry x="300" y="150" width="140" height="60" as="geometry" />
        </mxCell>
        <mxCell id="RavAk34t6wuNCGmMc1mm-8" value="" style="edgeStyle=orthogonalEdgeStyle;rounded=0;orthogonalLoop=1;jettySize=auto;html=1;" edge="1" parent="1" source="RavAk34t6wuNCGmMc1mm-5" target="RavAk34t6wuNCGmMc1mm-7">
          <mxGeometry relative="1" as="geometry" />
        </mxCell>
        <mxCell id="RavAk34t6wuNCGmMc1mm-12" value="" style="edgeStyle=orthogonalEdgeStyle;rounded=0;orthogonalLoop=1;jettySize=auto;html=1;" edge="1" parent="1" source="RavAk34t6wuNCGmMc1mm-5" target="RavAk34t6wuNCGmMc1mm-11">
          <mxGeometry relative="1" as="geometry" />
        </mxCell>
        <mxCell id="RavAk34t6wuNCGmMc1mm-5" value="¿La contraseña es correcta?" style="rhombus;whiteSpace=wrap;html=1;" vertex="1" parent="1">
          <mxGeometry x="330" y="280" width="80" height="80" as="geometry" />
        </mxCell>
        <mxCell id="RavAk34t6wuNCGmMc1mm-15" value="" style="edgeStyle=orthogonalEdgeStyle;rounded=0;orthogonalLoop=1;jettySize=auto;html=1;" edge="1" parent="1" source="RavAk34t6wuNCGmMc1mm-7" target="RavAk34t6wuNCGmMc1mm-14">
          <mxGeometry relative="1" as="geometry" />
        </mxCell>
        <mxCell id="RavAk34t6wuNCGmMc1mm-7" value="Acceso concedido" style="shape=parallelogram;perimeter=parallelogramPerimeter;whiteSpace=wrap;html=1;fixedSize=1;" vertex="1" parent="1">
          <mxGeometry x="470" y="290" width="120" height="60" as="geometry" />
        </mxCell>
        <mxCell id="RavAk34t6wuNCGmMc1mm-13" style="edgeStyle=orthogonalEdgeStyle;rounded=0;orthogonalLoop=1;jettySize=auto;html=1;exitX=0.5;exitY=0;exitDx=0;exitDy=0;entryX=0;entryY=0.75;entryDx=0;entryDy=0;" edge="1" parent="1" source="RavAk34t6wuNCGmMc1mm-11" target="RavAk34t6wuNCGmMc1mm-4">
          <mxGeometry relative="1" as="geometry">
            <Array as="points">
              <mxPoint x="210" y="190" />
              <mxPoint x="305" y="190" />
            </Array>
          </mxGeometry>
        </mxCell>
        <mxCell id="RavAk34t6wuNCGmMc1mm-11" value="Contraseña incorrecta " style="shape=parallelogram;perimeter=parallelogramPerimeter;whiteSpace=wrap;html=1;fixedSize=1;" vertex="1" parent="1">
          <mxGeometry x="150" y="290" width="120" height="60" as="geometry" />
        </mxCell>
        <mxCell id="RavAk34t6wuNCGmMc1mm-14" value="fin " style="ellipse;whiteSpace=wrap;html=1;" vertex="1" parent="1">
          <mxGeometry x="475" y="420" width="110" height="80" as="geometry" />
        </mxCell>
        <mxCell id="MdbyfwVxJyyNHtIMYZva-1" value="Si " style="text;html=1;align=center;verticalAlign=middle;whiteSpace=wrap;rounded=0;" vertex="1" parent="1">
          <mxGeometry x="410" y="300" width="60" height="30" as="geometry" />
        </mxCell>
        <mxCell id="MdbyfwVxJyyNHtIMYZva-2" value="No" style="text;html=1;align=center;verticalAlign=middle;whiteSpace=wrap;rounded=0;" vertex="1" parent="1">
          <mxGeometry x="270" y="300" width="60" height="30" as="geometry" />
        </mxCell>
      </root>
    </mxGraphModel>
  </diagram>
  <diagram id="EZF-amCe4Oes6q7mWjEa" name="Página-5">
    <mxGraphModel dx="1360" dy="795" grid="1" gridSize="10" guides="1" tooltips="1" connect="1" arrows="1" fold="1" page="1" pageScale="1" pageWidth="827" pageHeight="1169" math="0" shadow="0">
      <root>
        <mxCell id="0" />
        <mxCell id="1" parent="0" />
        <mxCell id="NCC6hUpp79pfKW0FvKf4-5" value="" style="edgeStyle=orthogonalEdgeStyle;rounded=0;orthogonalLoop=1;jettySize=auto;html=1;" edge="1" parent="1" source="NCC6hUpp79pfKW0FvKf4-1" target="NCC6hUpp79pfKW0FvKf4-4">
          <mxGeometry relative="1" as="geometry" />
        </mxCell>
        <mxCell id="NCC6hUpp79pfKW0FvKf4-1" value="incio" style="ellipse;whiteSpace=wrap;html=1;" vertex="1" parent="1">
          <mxGeometry x="320" y="20" width="120" height="80" as="geometry" />
        </mxCell>
        <mxCell id="SX8kEbl-xFthz_WH1DA7-2" value="" style="edgeStyle=orthogonalEdgeStyle;rounded=0;orthogonalLoop=1;jettySize=auto;html=1;" edge="1" parent="1" source="NCC6hUpp79pfKW0FvKf4-4" target="SX8kEbl-xFthz_WH1DA7-1">
          <mxGeometry relative="1" as="geometry" />
        </mxCell>
        <mxCell id="NCC6hUpp79pfKW0FvKf4-4" value="Valor de cuenta=V " style="shape=parallelogram;perimeter=parallelogramPerimeter;whiteSpace=wrap;html=1;fixedSize=1;" vertex="1" parent="1">
          <mxGeometry x="320" y="150" width="120" height="60" as="geometry" />
        </mxCell>
        <mxCell id="NCC6hUpp79pfKW0FvKf4-6" style="edgeStyle=orthogonalEdgeStyle;rounded=0;orthogonalLoop=1;jettySize=auto;html=1;exitX=0.5;exitY=1;exitDx=0;exitDy=0;" edge="1" parent="1" source="NCC6hUpp79pfKW0FvKf4-4" target="NCC6hUpp79pfKW0FvKf4-4">
          <mxGeometry relative="1" as="geometry" />
        </mxCell>
        <mxCell id="SX8kEbl-xFthz_WH1DA7-4" value="" style="edgeStyle=orthogonalEdgeStyle;rounded=0;orthogonalLoop=1;jettySize=auto;html=1;" edge="1" parent="1" source="SX8kEbl-xFthz_WH1DA7-1" target="SX8kEbl-xFthz_WH1DA7-3">
          <mxGeometry relative="1" as="geometry" />
        </mxCell>
        <mxCell id="SX8kEbl-xFthz_WH1DA7-1" value="Propina =P" style="shape=parallelogram;perimeter=parallelogramPerimeter;whiteSpace=wrap;html=1;fixedSize=1;" vertex="1" parent="1">
          <mxGeometry x="320" y="240" width="120" height="60" as="geometry" />
        </mxCell>
        <mxCell id="SX8kEbl-xFthz_WH1DA7-6" value="" style="edgeStyle=orthogonalEdgeStyle;rounded=0;orthogonalLoop=1;jettySize=auto;html=1;" edge="1" parent="1" source="SX8kEbl-xFthz_WH1DA7-3" target="SX8kEbl-xFthz_WH1DA7-5">
          <mxGeometry relative="1" as="geometry" />
        </mxCell>
        <mxCell id="SX8kEbl-xFthz_WH1DA7-3" value="Calculo V*(P/100)+V" style="whiteSpace=wrap;html=1;" vertex="1" parent="1">
          <mxGeometry x="320" y="320" width="120" height="60" as="geometry" />
        </mxCell>
        <mxCell id="SX8kEbl-xFthz_WH1DA7-8" value="" style="edgeStyle=orthogonalEdgeStyle;rounded=0;orthogonalLoop=1;jettySize=auto;html=1;" edge="1" parent="1" source="SX8kEbl-xFthz_WH1DA7-5" target="SX8kEbl-xFthz_WH1DA7-7">
          <mxGeometry relative="1" as="geometry" />
        </mxCell>
        <mxCell id="SX8kEbl-xFthz_WH1DA7-5" value="El valor final es " style="shape=parallelogram;perimeter=parallelogramPerimeter;whiteSpace=wrap;html=1;fixedSize=1;" vertex="1" parent="1">
          <mxGeometry x="320" y="400" width="120" height="60" as="geometry" />
        </mxCell>
        <mxCell id="SX8kEbl-xFthz_WH1DA7-7" value="Fin" style="ellipse;whiteSpace=wrap;html=1;" vertex="1" parent="1">
          <mxGeometry x="315" y="490" width="130" height="80" as="geometry" />
        </mxCell>
      </root>
    </mxGraphModel>
  </diagram>
  <diagram id="0lIeYv2YXa687R31HYMM" name="Página-6">
    <mxGraphModel dx="1360" dy="795" grid="1" gridSize="10" guides="1" tooltips="1" connect="1" arrows="1" fold="1" page="1" pageScale="1" pageWidth="827" pageHeight="1169" math="0" shadow="0">
      <root>
        <mxCell id="0" />
        <mxCell id="1" parent="0" />
        <mxCell id="9IfO7bpheCfvjGyAr4Lc-5" value="" style="edgeStyle=orthogonalEdgeStyle;rounded=0;orthogonalLoop=1;jettySize=auto;html=1;" edge="1" parent="1" source="9IfO7bpheCfvjGyAr4Lc-3" target="9IfO7bpheCfvjGyAr4Lc-4">
          <mxGeometry relative="1" as="geometry" />
        </mxCell>
        <mxCell id="9IfO7bpheCfvjGyAr4Lc-3" value="incio" style="ellipse;whiteSpace=wrap;html=1;" vertex="1" parent="1">
          <mxGeometry x="340" y="40" width="120" height="80" as="geometry" />
        </mxCell>
        <mxCell id="9IfO7bpheCfvjGyAr4Lc-7" value="" style="edgeStyle=orthogonalEdgeStyle;rounded=0;orthogonalLoop=1;jettySize=auto;html=1;" edge="1" parent="1" source="9IfO7bpheCfvjGyAr4Lc-4" target="9IfO7bpheCfvjGyAr4Lc-6">
          <mxGeometry relative="1" as="geometry" />
        </mxCell>
        <mxCell id="9IfO7bpheCfvjGyAr4Lc-4" value="&quot;Intenta adivinar el numero&quot; " style="shape=parallelogram;perimeter=parallelogramPerimeter;whiteSpace=wrap;html=1;fixedSize=1;" vertex="1" parent="1">
          <mxGeometry x="340" y="160" width="120" height="60" as="geometry" />
        </mxCell>
        <mxCell id="9IfO7bpheCfvjGyAr4Lc-9" value="" style="edgeStyle=orthogonalEdgeStyle;rounded=0;orthogonalLoop=1;jettySize=auto;html=1;" edge="1" parent="1" source="9IfO7bpheCfvjGyAr4Lc-6" target="9IfO7bpheCfvjGyAr4Lc-8">
          <mxGeometry relative="1" as="geometry" />
        </mxCell>
        <mxCell id="9IfO7bpheCfvjGyAr4Lc-6" value="ingreso un numero" style="shape=parallelogram;perimeter=parallelogramPerimeter;whiteSpace=wrap;html=1;fixedSize=1;" vertex="1" parent="1">
          <mxGeometry x="340" y="250" width="120" height="60" as="geometry" />
        </mxCell>
        <mxCell id="9IfO7bpheCfvjGyAr4Lc-8" value="Num=al" style="rhombus;whiteSpace=wrap;html=1;" vertex="1" parent="1">
          <mxGeometry x="360" y="380" width="80" height="80" as="geometry" />
        </mxCell>
      </root>
    </mxGraphModel>
  </diagram>
</mxfile>
